<svg xmlns="http://www.w3.org/2000/svg" viewBox="0 0 32 32" width="32" height="32">
  <!-- Book base -->
  <rect x="6" y="12" width="20" height="14" rx="2" fill="url(#bookGradient)" stroke="url(#bookStroke)" stroke-width="0.5"/>
  
  <!-- Book spine -->
  <rect x="6" y="12" width="3" height="14" rx="0.5" fill="url(#spineGradient)"/>
  
  <!-- Book pages -->
  <rect x="10" y="14" width="14" height="10" rx="1" fill="#ffffff" stroke="#e5e7eb" stroke-width="0.25"/>
  
  <!-- Left leaf -->
  <path d="M10 8 C8 6, 5 4, 2 8 C4 10, 8 12, 11 9 C10.5 8.5, 10.25 8.25, 10 8 Z" fill="url(#leafGradient1)"/>
  
  <!-- Right leaf -->
  <path d="M22 8 C24 6, 27 4, 30 8 C28 10, 24 12, 21 9 C21.5 8.5, 21.75 8.25, 22 8 Z" fill="url(#leafGradient2)"/>
  
  <!-- Central stem -->
  <path d="M16 12 L16 4 M14 6 L16 4 L18 6" stroke="url(#stemGradient)" stroke-width="1.5" stroke-linecap="round" stroke-linejoin="round" fill="none"/>
  
  <!-- Gradients -->
  <defs>
    <linearGradient id="bookGradient" x1="0%" y1="0%" x2="100%" y2="100%">
      <stop offset="0%" stop-color="#2f9e76"/>
      <stop offset="50%" stop-color="#2d9e75"/>
      <stop offset="100%" stop-color="#1f7f5e"/>
    </linearGradient>
    
    <linearGradient id="bookStroke" x1="0%" y1="0%" x2="100%" y2="100%">
      <stop offset="0%" stop-color="#1a654d"/>
      <stop offset="100%" stop-color="#144336"/>
    </linearGradient>
    
    <linearGradient id="spineGradient" x1="0%" y1="0%" x2="100%" y2="100%">
      <stop offset="0%" stop-color="#1a654d"/>
      <stop offset="100%" stop-color="#0f3d2f"/>
    </linearGradient>
    
    <linearGradient id="leafGradient1" x1="0%" y1="0%" x2="100%" y2="100%">
      <stop offset="0%" stop-color="#6ebc95"/>
      <stop offset="50%" stop-color="#52b691"/>
      <stop offset="100%" stop-color="#2d9e75"/>
    </linearGradient>
    
    <linearGradient id="leafGradient2" x1="0%" y1="0%" x2="100%" y2="100%">
      <stop offset="0%" stop-color="#9dd6bf"/>
      <stop offset="50%" stop-color="#8bd1b5"/>
      <stop offset="100%" stop-color="#52b691"/>
    </linearGradient>
    
    <linearGradient id="stemGradient" x1="0%" y1="0%" x2="100%" y2="100%">
      <stop offset="0%" stop-color="#6ebc95"/>
      <stop offset="100%" stop-color="#2d9e75"/>
    </linearGradient>
  </defs>
</svg>